<svg xmlns="http://www.w3.org/2000/svg" xmlns:xlink="http://www.w3.org/1999/xlink" viewBox="0 0 1000 1000" width="1000" height="1000" preserveAspectRatio="xMidYMid slice" style="width: 100%; height: 100%; transform: translate3d(0px, 0px, 0px); content-visibility: visible;"><defs><clipPath id="__lottie_element_300"><rect width="1000" height="1000" x="0" y="0"></rect></clipPath><clipPath id="__lottie_element_386"><path d="M0,0 L4018,0 L4018,1266 L0,1266z"></path></clipPath><clipPath id="__lottie_element_390"><path fill="#ffffff" clip-rule="nonzero" d=" M1803.345947265625,-233.51699829101562 C1803.345947265625,-233.51699829101562 32.17399978637695,-232.23500061035156 32.17399978637695,-232.23500061035156 C32.17399978637695,-232.23500061035156 -275.82598876953125,1226.4830322265625 -275.82598876953125,1226.4830322265625 C-275.82598876953125,1226.4830322265625 1495.345947265625,1225.2020263671875 1495.345947265625,1225.2020263671875 C1495.345947265625,1225.2020263671875 1803.345947265625,-233.51699829101562 1803.345947265625,-233.51699829101562" fill-opacity="1"></path></clipPath><clipPath id="__lottie_element_393"><path fill="#ffffff" clip-rule="nonzero" d=" M1215.345947265625,-232.1820068359375 C1215.345947265625,-232.1820068359375 32.17399978637695,-232.23500061035156 32.17399978637695,-232.23500061035156 C32.17399978637695,-232.23500061035156 -275.82598876953125,1226.4830322265625 -275.82598876953125,1226.4830322265625 C-275.82598876953125,1226.4830322265625 907.3460083007812,1226.5369873046875 907.3460083007812,1226.5369873046875 C907.3460083007812,1226.5369873046875 1215.345947265625,-232.1820068359375 1215.345947265625,-232.1820068359375" fill-opacity="1"></path></clipPath></defs><g clip-path="url(#__lottie_element_300)"><g clip-path="url(#__lottie_element_386)" transform="matrix(0.28022998571395874,0,0,0.28022998571395874,-70.9820556640625,322.61444091796875)" opacity="1" style="display: block;"><g style="display: block;" transform="matrix(1,0,0,1,2302.52001953125,216.10800170898438)" opacity="1"><g opacity="1" transform="matrix(1,0,0,1,358.0880126953125,479.0790100097656)"><path fill="rgb(50,253,255)" fill-opacity="1" d=" M-286.62799072265625,-14.288000106811523 C-286.62799072265625,-14.288000106811523 -291.76300048828125,8.928999900817871 -291.76300048828125,8.928999900817871 C-357.8380126953125,313.8609924316406 -232.15899658203125,478.8290100097656 100.00700378417969,478.8290100097656 C130.14199829101562,478.8290100097656 158.93800354003906,477.489013671875 186.17300415039062,475.2550048828125 C186.17300415039062,475.2550048828125 188.8520050048828,460.9700012207031 188.8520050048828,460.9700012207031 C188.8520050048828,460.9700012207031 224.5679931640625,263.6340026855469 224.5679931640625,263.6340026855469 C67.86100006103516,263.18701171875 -6.0279998779296875,221.66700744628906 7.364999771118164,77.23799896240234 C7.364999771118164,77.23799896240234 12.053999900817871,28.350000381469727 12.053999900817871,28.350000381469727 C25.000999450683594,-25.672000885009766 37.500999450683594,-62.95100021362305 37.500999450683594,-62.95100021362305 C37.500999450683594,-62.95100021362305 37.724998474121094,-62.95100021362305 37.724998474121094,-62.95100021362305 C79.91600036621094,-195.7729949951172 106.22599792480469,-280.072998046875 185.88400268554688,-344.218994140625 C225.6020050048828,-376.2030029296875 357.8380126953125,-474.1400146484375 357.8380126953125,-474.1400146484375 C331.718994140625,-477.2659912109375 303.5920104980469,-478.8290100097656 273.2330017089844,-478.8290100097656 C-6.250999927520752,-478.8290100097656 -224.79400634765625,-299.5740051269531 -286.62799072265625,-14.288000106811523z"></path></g></g><g style="display: block;" transform="matrix(1,0,0,1,680.3079833984375,189.343994140625)" opacity="1"><g opacity="1" transform="matrix(1,0,0,1,309.31201171875,483.5320129394531)"><path fill="rgb(50,253,255)" fill-opacity="1" d=" M19.531999588012695,-450.04400634765625 C-140.9709930419922,-387.093994140625 -212.18099975585938,-293.7820129394531 -285.3999938964844,-173.23899841308594 C-285.3999938964844,-173.23899841308594 -309.06201171875,-52.69499969482422 -309.06201171875,-52.69499969482422 C-158.82899475097656,-172.12399291992188 18.639999389648438,-203.37399291992188 12.164999961853027,-171.00599670410156 C12.164999961853027,-171.00599670410156 -129.8090057373047,483.281005859375 -129.8090057373047,483.281005859375 C-129.8090057373047,483.281005859375 139.1820068359375,483.281005859375 139.1820068359375,483.281005859375 C139.1820068359375,483.281005859375 309.06201171875,-457.18701171875 309.06201171875,-457.18701171875 C279.3450012207031,-474.9150085449219 237.26199340820312,-483.2820129394531 190.61900329589844,-483.281005859375 C135.6529998779297,-483.281005859375 74.35600280761719,-471.6600036621094 19.531999588012695,-450.04400634765625z"></path></g></g><g clip-path="url(#__lottie_element_393)" transform="matrix(1,0,0,1,2385.880126953125,216.13299560546875)" opacity="1" style="display: block;"><g opacity="1" transform="matrix(1,0,0,1,512.89697265625,479.0790100097656)"><path fill="rgb(255,255,255)" fill-opacity="1" d=" M118.42400360107422,-478.8280029296875 C-161.06100463867188,-478.8280029296875 -379.60198974609375,-299.57501220703125 -441.4360046386719,-14.288000106811523 C-441.4360046386719,-14.288000106811523 -446.57000732421875,8.930000305175781 -446.57000732421875,8.930000305175781 C-512.64697265625,313.86199951171875 -386.9700012207031,478.8280029296875 -54.803001403808594,478.8280029296875 C117.53099822998047,478.8280029296875 242.5399932861328,437.531005859375 322.2330017089844,396.45599365234375 C322.2330017089844,396.45599365234375 407.9530029296875,192.6479949951172 407.9530029296875,192.6479949951172 C329.15301513671875,221.2220001220703 182.26699829101562,263.6340026855469 71.76799774169922,263.6340026855469 C-86.27799987792969,263.6340026855469 -160.83700561523438,222.33700561523438 -147.44200134277344,77.23799896240234 C-147.44200134277344,77.23799896240234 429.60699462890625,77.23799896240234 429.60699462890625,77.23799896240234 C429.60699462890625,77.23799896240234 446.7959899902344,-1.784999966621399 446.7959899902344,-1.784999966621399 C512.6480102539062,-304.9320068359375 432.2850036621094,-478.8280029296875 118.42400360107422,-478.8280029296875z M160.16900634765625,-43.97600173950195 C160.16900634765625,-43.97600173950195 2.2780001163482666,-43.97600173950195 2.2780001163482666,-43.97600173950195 C-71.83399963378906,-43.97600173950195 -142.7550048828125,28.350000381469727 -142.7550048828125,28.350000381469727 C-129.8070068359375,-25.67099952697754 -117.30699920654297,-62.95100021362305 -117.30699920654297,-62.95100021362305 C-117.30699920654297,-62.95100021362305 -117.08399963378906,-62.95100021362305 -117.08399963378906,-62.95100021362305 C-74.89299774169922,-195.77200317382812 -27.347000122070312,-280.60101318359375 74.89399719238281,-277.9219970703125 C215.08299255371094,-274.1260070800781 189.41099548339844,-178.58399963378906 160.16900634765625,-43.97600173950195z"></path></g></g><g clip-path="url(#__lottie_element_390)" transform="matrix(1,0,0,1,783.825927734375,160.2349853515625)" opacity="1" style="display: block;"><g opacity="1" transform="matrix(1,0,0,1,804.9520263671875,498.08099365234375)"><path fill="rgb(255,255,255)" fill-opacity="1" d=" M651.0770263671875,332.5870056152344 C651.0770263671875,332.5870056152344 765.0170288085938,-192.6230010986328 765.0170288085938,-192.6230010986328 C804.7020263671875,-375.54901123046875 722.9240112304688,-441.9079895019531 563.2360229492188,-441.9079895019531 C450.7239990234375,-441.9079895019531 375.23699951171875,-367.6000061035156 297.093994140625,-279.1400146484375 C297.093994140625,-279.1400146484375 295.7919921875,-286.927001953125 295.7919921875,-286.927001953125 C288.0669860839844,-363.52099609375 205.9739990234375,-441.9079895019531 98.91300201416016,-441.9079895019531 C-22.670000076293945,-441.9079895019531 -85.91699981689453,-369.1419982910156 -147.06199645996094,-294.10101318359375 C-147.06199645996094,-294.10101318359375 -160.18899536132812,-275.4419860839844 -160.18899536132812,-275.4419860839844 C-160.18899536132812,-275.4419860839844 -161.03199768066406,-275.9200134277344 -161.03199768066406,-275.9200134277344 C-161.03199768066406,-275.9200134277344 -147.50799560546875,-333.87200927734375 -147.50799560546875,-333.87200927734375 C-105.86199951171875,-477.12799072265625 -317.9230041503906,-497.83099365234375 -476.2969970703125,-435.52801513671875 C-636.7080078125,-372.4590148925781 -707.8889770507812,-279.11700439453125 -781.0349731445312,-158.5800018310547 C-781.0349731445312,-158.5800018310547 -804.7020263671875,-38.12799835205078 -804.7020263671875,-38.12799835205078 C-654.677978515625,-157.593994140625 -477.1239929199219,-188.72799682617188 -483.62298583984375,-156.33900451660156 C-483.62298583984375,-156.33900451660156 -625.5399780273438,497.83099365234375 -625.5399780273438,497.83099365234375 C-625.5399780273438,497.83099365234375 -315.22900390625,497.83099365234375 -315.22900390625,497.83099365234375 C-315.22900390625,497.83099365234375 -169.33099365234375,-174.68899536132812 -169.33099365234375,-174.68899536132812 C-132.36000061035156,-196.89300537109375 -103.85700225830078,-206.9010009765625 -70.28099822998047,-205.1790008544922 C-12.26200008392334,-202.20399475097656 -10.904999732971191,-178.27999877929688 -26.468000411987305,-106.54100036621094 C-26.468000411987305,-106.54100036621094 -157.58200073242188,497.83099365234375 -157.58200073242188,497.83099365234375 C-157.58200073242188,497.83099365234375 150.91099548339844,497.83099365234375 150.91099548339844,497.83099365234375 C150.91099548339844,497.83099365234375 292.1400146484375,-153.1699981689453 292.1400146484375,-153.1699981689453 C293.3059997558594,-158.5500030517578 294.5920104980469,-169.3090057373047 294.99200439453125,-174.68899536132812 C334.1579895019531,-199 354.9309997558594,-204.77499389648438 371.2380065917969,-205.1790008544922 C446.0249938964844,-207.03199768066406 453.41900634765625,-178.27999877929688 437.85400390625,-106.54100036621094 C437.85400390625,-106.54100036621094 306.7409973144531,497.83099365234375 306.7409973144531,497.83099365234375 C306.7409973144531,497.83099365234375 474.5790100097656,497.83099365234375 474.5790100097656,497.83099365234375 C474.5790100097656,497.83099365234375 615.22802734375,497.83099365234375 615.22802734375,497.83099365234375 C615.22802734375,497.83099365234375 707.843994140625,497.83099365234375 707.843994140625,497.83099365234375 C707.843994140625,497.83099365234375 622.5780029296875,463.95599365234375 651.0770263671875,332.5870056152344z"></path></g></g></g><g style="display: none;"><g><path></path></g></g><g style="display: none;"><g><path></path></g></g><g style="display: none;"><g><path></path></g></g><g style="display: none;"><g><path></path></g></g><g style="display: none;"><g><path></path></g></g><g style="display: none;"><g><path></path></g></g><g style="display: none;"><g><path></path></g></g><g style="display: none;"><g><path></path></g></g><g style="display: none;"><g><path></path></g></g><g style="display: none;"><g><path></path></g></g><g style="display: none;"><g><path></path></g></g><g style="display: none;"><g><path></path></g></g><g style="display: none;"><g><path></path></g></g><g style="display: none;"><g><path></path></g></g><g style="display: none;"><g><path></path></g></g><g style="display: none;"><g><path></path></g></g><g style="display: none;"><g><path></path></g></g><g style="display: none;"><g><path></path></g></g><g style="display: none;"><g><path></path></g></g><g style="display: none;"><g><path></path></g></g><g style="display: none;"><g><path></path></g></g><g style="display: none;"><g><path></path></g></g><g style="display: none;"><g><path></path></g></g><g style="display: none;"><g><path></path></g></g><g style="display: none;"><g><path></path></g></g><g style="display: none;"><g><path></path></g></g><g style="display: none;"><g><path></path></g></g><g style="display: none;"><g><path></path></g></g></g></svg>